<svg xmlns="http://www.w3.org/2000/svg" viewBox="3428.109 792 130.033 130.033">
  <defs>
    <style>
      .cls-1, .cls-2, .cls-4 {
        fill: none;
      }

      .cls-1, .cls-2 {
        stroke: #000;
      }

      .cls-1 {
        stroke-width: 2px;
      }

      .cls-3 {
        stroke: none;
      }
    </style>
  </defs>
  <g id="Group_20" data-name="Group 20" transform="translate(2043)">
    <g id="Ellipse_58" data-name="Ellipse 58" class="cls-1" transform="translate(1385.109 792)">
      <circle class="cls-3" cx="65.017" cy="65.017" r="65.017"/>
      <circle class="cls-4" cx="65.017" cy="65.017" r="64.017"/>
    </g>
    <path id="Path_74" data-name="Path 74" class="cls-2" d="M3067.814,843.388c0-6.131-7.394-6.826-7.394,0s7.946,12.073,14.228,12.073,7.416-4.709,0-4.709-18.93,16.19-25.379,16.19-7.081-5.806,0-5.806,19.63,18.3,30.7,18.268,10.212-7.133,0-7.133-23.646,22.986-35,22.986-11.777-9.084,0-9.084,22.845,9.124,22.845,16.083-7.394,7.428-7.394-.485,10.044-17.3,21.21-17.3,10.424,9.511,0,9.511-25.8-20.517-34.769-20.517-9.221,7.494,0,7.494,22.534-20.389,31.083-20.389,7.65,6.375,0,6.375-19.344-14.936-25.163-14.936-5.95,4.39,0,4.39S3067.814,849.519,3067.814,843.388Z" transform="translate(-1613.257 -15.824)"/>
  </g>
</svg>
