<svg xmlns="http://www.w3.org/2000/svg" xmlns:xlink="http://www.w3.org/1999/xlink" viewBox="2746 192 748.986 80">
  <defs>
    <style>
      .cls-1, .cls-12, .cls-13, .cls-14, .cls-15, .cls-16, .cls-2, .cls-3, .cls-4 {
        fill: none;
      }

      .cls-1, .cls-2, .cls-5, .cls-7, .cls-8 {
        stroke: #000;
      }

      .cls-1, .cls-3, .cls-7, .cls-9 {
        stroke-width: 2px;
      }

      .cls-10, .cls-3, .cls-4, .cls-6, .cls-9 {
        stroke: #ff009d;
      }

      .cls-5, .cls-6 {
        fill: #ff009d;
      }

      .cls-7, .cls-9 {
        fill: #fff;
      }

      .cls-10, .cls-8 {
        fill: #95989a;
      }

      .cls-11 {
        stroke: none;
      }

      .cls-13 {
        clip-path: url(#clip);
      }

      .cls-14 {
        clip-path: url(#clip-2);
      }

      .cls-15 {
        clip-path: url(#clip-3);
      }

      .cls-16 {
        clip-path: url(#clip-4);
      }
    </style>
    <clipPath id="clip">
      <use xlink:href="#fill"/>
    </clipPath>
    <clipPath id="clip-2">
      <use xlink:href="#fill-2"/>
    </clipPath>
    <clipPath id="clip-3">
      <use xlink:href="#fill-3"/>
    </clipPath>
    <clipPath id="clip-4">
      <use xlink:href="#fill-4"/>
    </clipPath>
  </defs>
  <g id="Group_34" data-name="Group 34" transform="translate(2029)">
    <g id="Group_25" data-name="Group 25" transform="translate(812.188 192)">
      <g id="Ellipse_49" data-name="Ellipse 49" class="cls-1" transform="translate(0 0)">
        <ellipse class="cls-11" cx="40" cy="40" rx="40" ry="40"/>
        <ellipse class="cls-12" cx="40" cy="40" rx="39" ry="39"/>
      </g>
      <path id="Path_35" data-name="Path 35" class="cls-2" d="M3065.559,762.083c-14.247,0-20.528,11.842-20.348,20.59s7.211,19.823,20.352,19.823,20.59-10.57,20.59-20.836" transform="translate(-3025.536 -741.915)"/>
      <path id="Path_36" data-name="Path 36" class="cls-2" d="M16.091,0C4.827,0-.139,9.363,0,16.28S5.7,31.954,16.095,31.954s16.8-9.55,16.28-16.475" transform="translate(17.401 40.524) rotate(-45)"/>
      <path id="Path_37" data-name="Path 37" class="cls-2" d="M11.665,0A11.451,11.451,0,0,0,0,11.8,11.668,11.668,0,0,0,11.668,23.165c7.532,0,11.731-6.507,11.8-11.943" transform="translate(28.562 52.11) rotate(-90)"/>
    </g>
    <g id="Group_30" data-name="Group 30" transform="translate(1194.72 192)">
      <g id="Ellipse_67" data-name="Ellipse 67" class="cls-3" transform="translate(0 0)">
        <circle class="cls-11" cx="40" cy="40" r="40"/>
        <circle class="cls-12" cx="40" cy="40" r="39"/>
      </g>
      <path id="Path_113" data-name="Path 113" class="cls-4" d="M3065.559,762.083c-14.247,0-20.528,11.842-20.348,20.59s7.211,19.823,20.352,19.823,20.59-10.57,20.59-20.836" transform="translate(-3025.536 -741.915)"/>
      <path id="Path_114" data-name="Path 114" class="cls-4" d="M16.091,0C4.827,0-.139,9.363,0,16.28S5.7,31.954,16.095,31.954s16.8-9.55,16.28-16.475" transform="translate(17.401 40.524) rotate(-45)"/>
      <path id="Path_115" data-name="Path 115" class="cls-4" d="M11.665,0A11.451,11.451,0,0,0,0,11.8,11.668,11.668,0,0,0,11.668,23.165c7.532,0,11.731-6.507,11.8-11.943" transform="translate(28.562 52.11) rotate(-90)"/>
    </g>
    <g id="Group_24" data-name="Group 24" transform="translate(717 192)">
      <g id="Ellipse_48" data-name="Ellipse 48" class="cls-1" transform="translate(0 0)">
        <ellipse class="cls-11" cx="40" cy="40" rx="40" ry="40"/>
        <ellipse class="cls-12" cx="40" cy="40" rx="39" ry="39"/>
      </g>
      <path id="Path_32" data-name="Path 32" class="cls-2" d="M15.378,20.374.795,4.178A2.594,2.594,0,0,1,.722.514,2.664,2.664,0,0,1,4.329,1c1.026,1.046,8.357,9.282,8.357,9.282s-2.663-2.592-.46-4.575,4.786,1.233,4.786,1.233a2.269,2.269,0,0,1,.27-3.357c1.856-1.671,4.534,1.275,4.534,1.275s-1.053-1.849.121-2.906,2.478-.361,3.6.8,1.234,1.37,5.032,5.588,4.242,10.942.041,14.79-7.793,3.588-10.859,3.588H8.333c-2.3,0-3.707-1.392-3.707-3.3s1.814-3.108,3.707-3.108S15.378,20.374,15.378,20.374Z" transform="matrix(0.743, 0.669, -0.669, 0.743, 34.729, 24.157)"/>
      <path id="Path_111" data-name="Path 111" class="cls-2" d="M5.462,0A5.361,5.361,0,0,0,0,5.526a5.463,5.463,0,0,0,5.462,5.32,5.608,5.608,0,0,0,5.526-5.592" transform="translate(42.685 26.319) rotate(135)"/>
    </g>
    <g id="Group_31" data-name="Group 31" transform="translate(1099.532 192)">
      <g id="Ellipse_66" data-name="Ellipse 66" class="cls-3" transform="translate(0 0)">
        <circle class="cls-11" cx="40" cy="40" r="40"/>
        <circle class="cls-12" cx="40" cy="40" r="39"/>
      </g>
      <path id="Path_112" data-name="Path 112" class="cls-4" d="M15.378,20.374.795,4.178A2.594,2.594,0,0,1,.722.514,2.664,2.664,0,0,1,4.329,1c1.026,1.046,8.357,9.282,8.357,9.282s-2.663-2.592-.46-4.575,4.786,1.233,4.786,1.233a2.269,2.269,0,0,1,.27-3.357c1.856-1.671,4.534,1.275,4.534,1.275s-1.053-1.849.121-2.906,2.478-.361,3.6.8,1.234,1.37,5.032,5.588,4.242,10.942.041,14.79-7.793,3.588-10.859,3.588H8.333c-2.3,0-3.707-1.392-3.707-3.3s1.814-3.108,3.707-3.108S15.378,20.374,15.378,20.374Z" transform="matrix(0.743, 0.669, -0.669, 0.743, 34.729, 24.157)"/>
      <path id="Path_116" data-name="Path 116" class="cls-4" d="M5.462,0A5.361,5.361,0,0,0,0,5.526a5.463,5.463,0,0,0,5.462,5.32,5.608,5.608,0,0,0,5.526-5.592" transform="translate(42.685 26.319) rotate(135)"/>
    </g>
    <g id="Group_26" data-name="Group 26" transform="translate(908.266 192)">
      <g id="Ellipse_55" data-name="Ellipse 55" class="cls-1">
        <ellipse class="cls-11" cx="40" cy="40" rx="40" ry="40"/>
        <ellipse class="cls-12" cx="40" cy="40" rx="39" ry="39"/>
      </g>
      <path id="Path_52" data-name="Path 52" class="cls-2" d="M0,0C5.548,0,8.047,3.831,11.179,5.812s6.294,1.48,6.441,2.349-1.487.583-1.522,2.62S16.26,17.573,14,19.8,5.33,22.734,0,22.734" transform="translate(39.852 17.778)"/>
      <path id="Path_53" data-name="Path 53" class="cls-2" d="M17.63,0C12.082,0,9.583,3.831,6.45,5.812S.156,7.291.009,8.161s1.487.583,1.522,2.62-.162,6.792,2.1,9.016,8.672,2.937,14,2.937" transform="translate(22.222 17.778)"/>
      <path id="Path_54" data-name="Path 54" class="cls-2" d="M3299.162,790.448a171,171,0,0,1,18.488,0" transform="translate(-3268.529 -755.489)"/>
      <path id="Path_55" data-name="Path 55" class="cls-2" d="M3293.035,792.545c4.879,2.516,23.188,1.909,25.593,0" transform="translate(-3265.967 -756.469)"/>
      <path id="Path_57" data-name="Path 57" class="cls-2" d="M3.425,0l-.5,1.632H.6L0,.122" transform="translate(33.846 39.833) rotate(8)"/>
      <path id="Path_56" data-name="Path 56" class="cls-2" d="M3.425,0l-.5,1.632H.6L0,.122" transform="translate(42.35 40.309) rotate(-8)"/>
      <path id="Path_47" data-name="Path 47" class="cls-2" d="M3312.064,815.309h-4.089" transform="translate(-3272.212 -766.161)"/>
      <path id="Path_47-2" data-name="Path 47" class="cls-2" d="M3307.975,815.309h4.089" transform="translate(-3268.124 -766.161)"/>
      <path id="Path_48" data-name="Path 48" class="cls-2" d="M3302.912,802.3l-6.25,20.046v1.044" transform="translate(-3267.483 -760.726)"/>
      <path id="Path_49" data-name="Path 49" class="cls-2" d="M3297.43,820.4l6-10.36-.667-7.341,3.734,7.341-8.322,11.747s-.715.921-1.411.851" transform="translate(-3267.527 -760.89)"/>
      <path id="Path_48-2" data-name="Path 48" class="cls-2" d="M3296.662,802.3l6.25,20.046v1.044" transform="translate(-3252.387 -760.726)"/>
      <path id="Path_49-2" data-name="Path 49" class="cls-2" d="M3305.832,820.4l-6-10.36.667-7.341-3.734,7.341,8.321,11.746s.715.921,1.411.851" transform="translate(-3256.031 -760.89)"/>
      <g id="Rectangle_36" data-name="Rectangle 36" class="cls-5" transform="translate(28.211 62.532)">
        <rect id="fill" class="cls-11" width="1.746" height="0.582" rx="0.291"/>
        <path class="cls-13" d="M0,0.08202290534973145h1.7460687160491943M1.2460687160491943,0v0.5820229053497314M1.7460687160491943,0.5h-1.7460687160491943M0.5,0.5820229053497314v-0.5820229053497314"/>
      </g>
      <g id="Rectangle_37" data-name="Rectangle 37" class="cls-5" transform="translate(49.746 62.532)">
        <rect id="fill-2" class="cls-11" width="1.746" height="0.582" rx="0.291"/>
        <path class="cls-14" d="M0,0.08202290534973145h1.7460687160491943M1.2460687160491943,0v0.5820229053497314M1.7460687160491943,0.5h-1.7460687160491943M0.5,0.5820229053497314v-0.5820229053497314"/>
      </g>
    </g>
    <g id="Group_29" data-name="Group 29" transform="translate(1290.798 192)">
      <g id="Ellipse_55-2" data-name="Ellipse 55" class="cls-3">
        <circle class="cls-11" cx="40" cy="40" r="40"/>
        <circle class="cls-12" cx="40" cy="40" r="39"/>
      </g>
      <path id="Path_52-2" data-name="Path 52" class="cls-4" d="M0,0C5.548,0,8.047,3.831,11.179,5.812s6.294,1.48,6.441,2.349-1.487.583-1.522,2.62S16.26,17.573,14,19.8,5.33,22.734,0,22.734" transform="translate(39.852 17.778)"/>
      <path id="Path_53-2" data-name="Path 53" class="cls-4" d="M17.63,0C12.082,0,9.583,3.831,6.45,5.812S.156,7.291.009,8.161s1.487.583,1.522,2.62-.162,6.792,2.1,9.016,8.672,2.937,14,2.937" transform="translate(22.222 17.778)"/>
      <path id="Path_54-2" data-name="Path 54" class="cls-4" d="M3299.162,790.448a171.027,171.027,0,0,1,18.488,0" transform="translate(-3268.529 -755.489)"/>
      <path id="Path_55-2" data-name="Path 55" class="cls-4" d="M3293.035,792.545c4.879,2.516,23.188,1.909,25.593,0" transform="translate(-3265.967 -756.469)"/>
      <path id="Path_57-2" data-name="Path 57" class="cls-4" d="M3.425,0l-.5,1.632H.6L0,.122" transform="translate(33.846 39.833) rotate(8)"/>
      <path id="Path_56-2" data-name="Path 56" class="cls-4" d="M3.425,0l-.5,1.632H.6L0,.122" transform="translate(42.35 40.309) rotate(-8)"/>
      <path id="Path_47-3" data-name="Path 47" class="cls-4" d="M3312.064,815.309h-4.089" transform="translate(-3272.212 -766.161)"/>
      <path id="Path_47-4" data-name="Path 47" class="cls-4" d="M3307.975,815.309h4.089" transform="translate(-3268.124 -766.161)"/>
      <path id="Path_48-3" data-name="Path 48" class="cls-4" d="M3302.912,802.3l-6.25,20.046v1.044" transform="translate(-3267.483 -760.726)"/>
      <path id="Path_49-3" data-name="Path 49" class="cls-4" d="M3297.43,820.4l6-10.36-.667-7.341,3.734,7.341-8.322,11.747s-.715.921-1.411.851" transform="translate(-3267.527 -760.89)"/>
      <path id="Path_48-4" data-name="Path 48" class="cls-4" d="M3296.662,802.3l6.25,20.046v1.044" transform="translate(-3252.387 -760.726)"/>
      <path id="Path_49-4" data-name="Path 49" class="cls-4" d="M3305.832,820.4l-6-10.36.667-7.341-3.734,7.341,8.321,11.747s.715.921,1.411.851" transform="translate(-3256.031 -760.89)"/>
      <g id="Rectangle_36-2" data-name="Rectangle 36" class="cls-6" transform="translate(28.211 62.532)">
        <rect id="fill-3" class="cls-11" width="1.746" height="0.582" rx="0.291"/>
        <path class="cls-15" d="M0,0.08202284574508667h1.7460687160491943M1.2460687160491943,0v0.5820228457450867M1.7460687160491943,0.5h-1.7460687160491943M0.5,0.5820228457450867v-0.5820228457450867"/>
      </g>
      <g id="Rectangle_37-2" data-name="Rectangle 37" class="cls-6" transform="translate(49.746 62.532)">
        <rect id="fill-4" class="cls-11" width="1.746" height="0.582" rx="0.291"/>
        <path class="cls-16" d="M0,0.08202284574508667h1.7460687160491943M1.2460687160491943,0v0.5820228457450867M1.7460687160491943,0.5h-1.7460687160491943M0.5,0.5820228457450867v-0.5820228457450867"/>
      </g>
    </g>
    <g id="Group_27" data-name="Group 27" transform="translate(1003.454 192)">
      <g id="Ellipse_65" data-name="Ellipse 65" class="cls-1" transform="translate(0 0)">
        <ellipse class="cls-11" cx="40" cy="40" rx="40" ry="40"/>
        <ellipse class="cls-12" cx="40" cy="40" rx="39" ry="39"/>
      </g>
      <g id="Ellipse_63" data-name="Ellipse 63" class="cls-2" transform="translate(35.347 23.566)">
        <ellipse class="cls-11" cx="4.548" cy="4.548" rx="4.548" ry="4.548"/>
        <ellipse class="cls-12" cx="4.548" cy="4.548" rx="4.048" ry="4.048"/>
      </g>
      <g id="Ellipse_64" data-name="Ellipse 64" class="cls-7" transform="translate(38.791 27.011)">
        <ellipse class="cls-11" cx="1.104" cy="1.104" rx="1.104" ry="1.104"/>
        <ellipse class="cls-12" cx="1.104" cy="1.104" rx="0.104" ry="0.104"/>
      </g>
      <path id="Path_82" data-name="Path 82" class="cls-2" d="M3316.5,274.313v-5.945h3.749v5.945" transform="translate(-3278.467 -250.024)"/>
      <path id="Path_83" data-name="Path 83" class="cls-2" d="M3316.5,274.313v-5.945h3.749v5.945" transform="translate(-3278.467 -250.024)"/>
      <path id="Path_84" data-name="Path 84" class="cls-2" d="M0,28.037V0H3.787V28.037" transform="translate(25.69 56.844) rotate(-150)"/>
      <path id="Path_85" data-name="Path 85" class="cls-2" d="M0,28.037V0H3.787V28.037" transform="translate(57.25 54.95) rotate(150)"/>
      <g id="Rectangle_38" data-name="Rectangle 38" class="cls-8" transform="translate(23.543 55.561) rotate(30)">
        <rect class="cls-11" width="1.24" height="7.028"/>
        <rect class="cls-12" x="0.5" y="0.5" width="0.24" height="6.028"/>
      </g>
      <g id="Rectangle_39" data-name="Rectangle 39" class="cls-8" transform="translate(54.757 56.181) rotate(-30)">
        <rect class="cls-11" width="1.24" height="7.028"/>
        <rect class="cls-12" x="0.5" y="0.5" width="0.24" height="6.028"/>
      </g>
      <path id="Path_86" data-name="Path 86" class="cls-2" d="M3284.05,310a14.4,14.4,0,0,0,3.435,9.592" transform="translate(-3259.432 -274.444)"/>
      <path id="Path_87" data-name="Path 87" class="cls-2" d="M3299.506,339.346a16.01,16.01,0,0,0,8.728,2.872,16.612,16.612,0,0,0,9.087-3.032" transform="translate(-3268.498 -291.564)"/>
      <path id="Path_88" data-name="Path 88" class="cls-2" d="M3349.274,319.586a14.179,14.179,0,0,0,3.443-9.586" transform="translate(-3297.69 -274.444)"/>
    </g>
    <g id="Group_28" data-name="Group 28" transform="translate(1385.986 192)">
      <g id="Ellipse_68" data-name="Ellipse 68" class="cls-3" transform="translate(0 0)">
        <circle class="cls-11" cx="40" cy="40" r="40"/>
        <circle class="cls-12" cx="40" cy="40" r="39"/>
      </g>
      <g id="Ellipse_69" data-name="Ellipse 69" class="cls-4" transform="translate(35.347 23.566)">
        <ellipse class="cls-11" cx="4.548" cy="4.548" rx="4.548" ry="4.548"/>
        <ellipse class="cls-12" cx="4.548" cy="4.548" rx="4.048" ry="4.048"/>
      </g>
      <g id="Ellipse_70" data-name="Ellipse 70" class="cls-9" transform="translate(38.791 27.011)">
        <ellipse class="cls-11" cx="1.104" cy="1.104" rx="1.104" ry="1.104"/>
        <ellipse class="cls-12" cx="1.104" cy="1.104" rx="0.104" ry="0.104"/>
      </g>
      <path id="Path_120" data-name="Path 120" class="cls-4" d="M3316.5,274.313v-5.945h3.749v5.945" transform="translate(-3278.467 -250.024)"/>
      <path id="Path_121" data-name="Path 121" class="cls-4" d="M3316.5,274.313v-5.945h3.749v5.945" transform="translate(-3278.467 -250.024)"/>
      <path id="Path_117" data-name="Path 117" class="cls-4" d="M0,28.037V0H3.787V28.037" transform="translate(25.69 56.844) rotate(-150)"/>
      <path id="Path_122" data-name="Path 122" class="cls-4" d="M0,28.037V0H3.787V28.037" transform="translate(57.25 54.95) rotate(150)"/>
      <g id="Rectangle_40" data-name="Rectangle 40" class="cls-10" transform="translate(23.543 55.561) rotate(30)">
        <rect class="cls-11" width="1.24" height="7.028"/>
        <rect class="cls-12" x="0.5" y="0.5" width="0.24" height="6.028"/>
      </g>
      <g id="Rectangle_41" data-name="Rectangle 41" class="cls-10" transform="translate(54.757 56.181) rotate(-30)">
        <rect class="cls-11" width="1.24" height="7.028"/>
        <rect class="cls-12" x="0.5" y="0.5" width="0.24" height="6.028"/>
      </g>
      <path id="Path_118" data-name="Path 118" class="cls-4" d="M3284.05,310a14.4,14.4,0,0,0,3.435,9.592" transform="translate(-3259.432 -274.444)"/>
      <path id="Path_119" data-name="Path 119" class="cls-4" d="M3299.506,339.346a16.01,16.01,0,0,0,8.728,2.872,16.612,16.612,0,0,0,9.087-3.032" transform="translate(-3268.498 -291.564)"/>
      <path id="Path_123" data-name="Path 123" class="cls-4" d="M3349.274,319.585a14.179,14.179,0,0,0,3.443-9.585" transform="translate(-3297.69 -274.444)"/>
    </g>
  </g>
</svg>
