<svg xmlns="http://www.w3.org/2000/svg" viewBox="3634.704 843 130.033 130.033">
  <defs>
    <style>
      .cls-1, .cls-3, .cls-5 {
        fill: none;
      }

      .cls-1, .cls-2, .cls-3 {
        stroke: #000;
      }

      .cls-2 {
        fill: #fff;
      }

      .cls-3 {
        stroke-width: 2px;
      }

      .cls-4 {
        stroke: none;
      }
    </style>
  </defs>
  <g id="Group_23" data-name="Group 23" transform="translate(2089)">
    <g id="Group_22" data-name="Group 22" transform="translate(1 3)">
      <path id="Path_77" data-name="Path 77" class="cls-1" d="M.5.5H24.25a7.055,7.055,0,0,0,4.521,4.95c-5.313,11.432,4.7,21.257,15.645,17.673C49.464,29.877,57.5,26.587,57.5,26.587V57.5H.5Z" transform="translate(1581 876)"/>
      <line id="Line_9" data-name="Line 9" class="cls-1" y2="39" transform="translate(1610.5 894.5)"/>
      <line id="Line_10" data-name="Line 10" class="cls-1" x2="57" transform="translate(1581.5 905.5)"/>
      <path id="Path_78" data-name="Path 78" class="cls-1" d="M3646.753,883.014h-16.147v16.8" transform="translate(-2043)"/>
      <path id="Path_79" data-name="Path 79" class="cls-1" d="M3646.753,883.014h-16.147v16.8" transform="translate(-2043 28)"/>
      <path id="Path_80" data-name="Path 80" class="cls-1" d="M3646.753,883.014h-16.147v16.8" transform="translate(-2014 28)"/>
      <g id="Ellipse_60" data-name="Ellipse 60" class="cls-2" transform="translate(1620 881)">
        <circle class="cls-4" cx="3" cy="3" r="3"/>
        <circle class="cls-5" cx="3" cy="3" r="2.5"/>
      </g>
      <g id="Ellipse_61" data-name="Ellipse 61" class="cls-2" transform="translate(1629 895)">
        <circle class="cls-4" cx="1" cy="1" r="1"/>
        <circle class="cls-5" cx="1" cy="1" r="0.5"/>
      </g>
    </g>
    <g id="Ellipse_62" data-name="Ellipse 62" class="cls-3" transform="translate(1545.704 843)">
      <circle class="cls-4" cx="65.017" cy="65.017" r="65.017"/>
      <circle class="cls-5" cx="65.017" cy="65.017" r="64.017"/>
    </g>
  </g>
</svg>
