<svg xmlns="http://www.w3.org/2000/svg" xmlns:xlink="http://www.w3.org/1999/xlink" viewBox="2495 792 130.033 130.033">
  <defs>
    <style>
      .cls-1, .cls-2, .cls-5, .cls-6, .cls-7 {
        fill: none;
      }

      .cls-1, .cls-2, .cls-3 {
        stroke: #000;
      }

      .cls-1 {
        stroke-width: 2px;
      }

      .cls-3 {
        fill: #ff009d;
      }

      .cls-4 {
        stroke: none;
      }

      .cls-6 {
        clip-path: url(#clip);
      }

      .cls-7 {
        clip-path: url(#clip-2);
      }
    </style>
    <clipPath id="clip">
      <use xlink:href="#fill"/>
    </clipPath>
    <clipPath id="clip-2">
      <use xlink:href="#fill-2"/>
    </clipPath>
  </defs>
  <g id="Group_17" data-name="Group 17" transform="translate(2043)">
    <g id="Ellipse_55" data-name="Ellipse 55" class="cls-1" transform="translate(452 792)">
      <circle class="cls-4" cx="65.017" cy="65.017" r="65.017"/>
      <circle class="cls-5" cx="65.017" cy="65.017" r="64.017"/>
    </g>
    <g id="Group_13" data-name="Group 13" transform="translate(488.12 820.896)">
      <path id="Union_19" data-name="Union 19" class="cls-2" d="M5.9,32.179C2.226,28.564,2.547,20.834,2.49,17.523S-.224,14.678.015,13.264s5.378-.6,10.469-3.818S19.638,0,28.656,0s13.08,6.227,18.171,9.447,10.23,2.405,10.469,3.818-2.416.948-2.474,4.259.263,11.04-3.407,14.656-14.1,4.773-22.759,4.773S9.566,35.793,5.9,32.179Z" transform="translate(0)"/>
      <path id="Path_54" data-name="Path 54" class="cls-2" d="M3299.162,790.6a277.969,277.969,0,0,1,30.05,0" transform="translate(-3285.49 -762.677)"/>
      <path id="Path_55" data-name="Path 55" class="cls-2" d="M3293.036,792.545c7.931,4.09,37.69,3.1,41.6.005" transform="translate(-3285.159 -762.803)"/>
      <path id="Path_57" data-name="Path 57" class="cls-2" d="M5.567,0,4.758,2.652H.974L0,.2" transform="translate(18.894 35.848) rotate(8)"/>
      <path id="Path_56" data-name="Path 56" class="cls-2" d="M5.567,0,4.758,2.652H.974L0,.2" transform="translate(32.715 36.623) rotate(-8)"/>
      <path id="Path_47" data-name="Path 47" class="cls-2" d="M3314.621,815.309h-6.646" transform="translate(-3285.966 -764.32)"/>
      <path id="Path_47-2" data-name="Path 47" class="cls-2" d="M3307.976,815.309h6.646" transform="translate(-3279.321 -764.32)"/>
      <path id="Path_48" data-name="Path 48" class="cls-2" d="M3306.821,802.3l-10.159,32.583v1.7" transform="translate(-3285.355 -763.618)"/>
      <path id="Path_49" data-name="Path 49" class="cls-2" d="M3297.845,831.467l9.753-16.839-1.084-11.932,6.069,11.932-13.526,19.093s-1.163,1.5-2.293,1.383" transform="translate(-3285.361 -763.64)"/>
      <path id="Path_48-2" data-name="Path 48" class="cls-2" d="M3296.662,802.3l10.159,32.583v1.7" transform="translate(-3260.817 -763.618)"/>
      <path id="Path_49-2" data-name="Path 49" class="cls-2" d="M3311.5,831.467l-9.752-16.839,1.084-11.932-6.069,11.932,13.525,19.093s1.163,1.5,2.293,1.383" transform="translate(-3266.677 -763.64)"/>
      <g id="Rectangle_36" data-name="Rectangle 36" class="cls-3" transform="translate(9.735 72.744)">
        <rect id="fill" class="cls-4" width="2.838" height="0.946" rx="0.473"/>
        <path class="cls-6" d="M0,0.44602900743484497h2.8380870819091797M2.3380870819091797,0v0.946029007434845M2.8380870819091797,0.5h-2.8380870819091797M0.5,0.946029007434845v-0.946029007434845"/>
      </g>
      <g id="Rectangle_37" data-name="Rectangle 37" class="cls-3" transform="translate(44.738 72.744)">
        <rect id="fill-2" class="cls-4" width="2.838" height="0.946" rx="0.473"/>
        <path class="cls-7" d="M0,0.44602900743484497h2.8380870819091797M2.3380870819091797,0v0.946029007434845M2.8380870819091797,0.5h-2.8380870819091797M0.5,0.946029007434845v-0.946029007434845"/>
      </g>
    </g>
  </g>
</svg>
