<svg xmlns="http://www.w3.org/2000/svg" viewBox="3121.086 792 130.033 130.033">
  <defs>
    <style>
      .cls-1, .cls-2, .cls-4 {
        fill: none;
      }

      .cls-1, .cls-2 {
        stroke: #000;
      }

      .cls-1 {
        stroke-width: 2px;
      }

      .cls-3 {
        stroke: none;
      }
    </style>
  </defs>
  <g id="Group_19" data-name="Group 19" transform="translate(2043)">
    <g id="Ellipse_57" data-name="Ellipse 57" class="cls-1" transform="translate(1078.086 792)">
      <circle class="cls-3" cx="65.017" cy="65.017" r="65.017"/>
      <circle class="cls-4" cx="65.017" cy="65.017" r="64.017"/>
    </g>
    <g id="Group_15" data-name="Group 15" transform="translate(1088.922 816.08)">
      <path id="Path_61" data-name="Path 61" class="cls-2" d="M18.664,21.915c2.042,3,3.645,3.642,6.148,2.029S47.853,10.037,52.733,7.22s2.4-7.471-1.181-7.21S46.39,4.455,40.138,8.692,20.447,23.4,11.458,24.913-.065,30.143,0,33.355s1.6,7.134,8.107,7.134H79.729c3.185,0,3.373-7,0-7S0,33.355,0,33.355" transform="matrix(0.788, -0.616, 0.616, 0.788, 0, 50.601)"/>
      <path id="Path_62" data-name="Path 62" class="cls-2" d="M0,0C6.624,4.806,13.571,10.511,16.885,10.511a7.8,7.8,0,0,0,5.956-2.73c.814-.874,1.936-4.677,4.432-3.847S33.1,21.349,28.6,30.176" transform="matrix(0.788, -0.616, 0.616, 0.788, 42.171, 21.727)"/>
      <path id="Path_63" data-name="Path 63" class="cls-2" d="M0,4.476C.344,5.923.634,6.788,2.312,6.788s14.341-.064,15.918,0S23.48,5.024,22.113,0" transform="matrix(0.788, -0.616, 0.616, 0.788, 18.355, 63.966)"/>
      <path id="Path_65" data-name="Path 65" class="cls-2" d="M0,0,11.2,11.878" transform="matrix(0.788, -0.616, 0.616, 0.788, 43.757, 29.121)"/>
      <path id="Path_69" data-name="Path 69" class="cls-2" d="M0,0,12.389,13.14" transform="matrix(0.788, -0.616, 0.616, 0.788, 36.301, 48.016)"/>
      <path id="Path_68" data-name="Path 68" class="cls-2" d="M0,0,7.6,8.059" transform="matrix(0.788, -0.616, 0.616, 0.788, 64.325, 16.972)"/>
      <path id="Path_66" data-name="Path 66" class="cls-2" d="M0,0,7.534,7.991" transform="matrix(0.788, -0.616, 0.616, 0.788, 64.629, 32.418)"/>
      <path id="Path_67" data-name="Path 67" class="cls-2" d="M0,5.629c7.629,6.544,11.057,5.446,15.918,2.45S27.774,0,27.774,0" transform="matrix(0.788, -0.616, 0.616, 0.788, 44.914, 36.147)"/>
      <line id="Line_5" data-name="Line 5" class="cls-2" x2="75.181" transform="matrix(0.788, -0.616, 0.616, 0.788, 27.234, 74.76)"/>
      <line id="Line_6" data-name="Line 6" class="cls-2" x2="75.181" transform="matrix(0.788, -0.616, 0.616, 0.788, 24.444, 79.553)"/>
      <path id="Path_70" data-name="Path 70" class="cls-2" d="M5.627,1.894S3.256.745,2.386.243A1.623,1.623,0,0,0,.216.664,1.611,1.611,0,0,0,.734,2.839" transform="matrix(0.788, -0.616, 0.616, 0.788, 34.708, 30.612)"/>
      <path id="Path_71" data-name="Path 71" class="cls-2" d="M5.627,1.894S3.256.745,2.386.243A1.623,1.623,0,0,0,.216.664,1.611,1.611,0,0,0,.734,2.839" transform="matrix(0.788, -0.616, 0.616, 0.788, 33.364, 35.583)"/>
      <path id="Path_72" data-name="Path 72" class="cls-2" d="M5.627,1.894S3.256.745,2.386.243A1.623,1.623,0,0,0,.216.664,1.611,1.611,0,0,0,.734,2.839" transform="matrix(0.788, -0.616, 0.616, 0.788, 31.209, 41.188)"/>
      <path id="Path_73" data-name="Path 73" class="cls-2" d="M5.627,1.894S3.256.745,2.386.243A1.623,1.623,0,0,0,.216.664,1.611,1.611,0,0,0,.734,2.839" transform="matrix(0.788, -0.616, 0.616, 0.788, 29.865, 46.159)"/>
    </g>
  </g>
</svg>
