<svg xmlns="http://www.w3.org/2000/svg" xmlns:xlink="http://www.w3.org/1999/xlink" viewBox="3226 735 128 128">
  <defs>
    <style>
      .cls-1, .cls-2, .cls-5, .cls-6, .cls-7 {
        fill: none;
      }

      .cls-1, .cls-2, .cls-3 {
        stroke: #000;
      }

      .cls-2 {
        stroke-width: 2px;
      }

      .cls-3 {
        fill: #fff;
      }

      .cls-4 {
        stroke: none;
      }

      .cls-6 {
        clip-path: url(#clip);
      }

      .cls-7 {
        clip-path: url(#clip-2);
      }
    </style>
    <clipPath id="clip">
      <use xlink:href="#fill"/>
    </clipPath>
    <clipPath id="clip-2">
      <use xlink:href="#fill-2"/>
    </clipPath>
  </defs>
  <g id="Group_13" data-name="Group 13" transform="translate(2019)">
    <path id="Union_16" data-name="Union 16" class="cls-1" d="M5.867,32.022c-3.652-3.6-3.333-11.29-3.39-14.584S-.223,14.606.015,13.2s5.352-.6,10.418-3.8S19.542,0,28.516,0,41.532,6.2,46.6,9.4s10.18,2.394,10.418,3.8-2.4.944-2.462,4.238.262,10.987-3.39,14.584-14.027,4.75-22.648,4.75S9.52,35.618,5.867,32.022Z" transform="translate(1243.484 763.323)"/>
    <path id="Path_40" data-name="Path 40" class="cls-1" d="M3299.162,790.6a276.6,276.6,0,0,1,29.9,0" transform="translate(-2042.072 0.512)"/>
    <path id="Path_41" data-name="Path 41" class="cls-1" d="M3293.036,792.545c7.892,4.07,37.506,3.087,41.4.005" transform="translate(-2041.713 0.375)"/>
    <path id="Path_42" data-name="Path 42" class="cls-1" d="M5.486,0,4.681,2.639H.915L0,.35" transform="translate(1262.339 799.004) rotate(8)"/>
    <path id="Path_43" data-name="Path 43" class="cls-1" d="M5.447.181,4.735,2.442H.969L0,0" transform="translate(1276.068 799.963) rotate(-8)"/>
    <g id="Ellipse_51" data-name="Ellipse 51" class="cls-2" transform="translate(1207 735)">
      <circle class="cls-4" cx="64" cy="64" r="64"/>
      <circle class="cls-5" cx="64" cy="64" r="63"/>
    </g>
    <path id="Path_47" data-name="Path 47" class="cls-1" d="M6.613,0H0" transform="translate(1265.387 814.063)"/>
    <path id="Path_47-2" data-name="Path 47" class="cls-1" d="M0,0H6.613" transform="translate(1272 814.063)"/>
    <path id="Path_48" data-name="Path 48" class="cls-1" d="M3306.771,802.3l-10.11,32.424v1.688" transform="translate(-2041.926 -0.484)"/>
    <path id="Path_49" data-name="Path 49" class="cls-1" d="M3297.84,831.327l9.7-16.757-1.078-11.873,6.039,11.873-13.459,19s-1.157,1.49-2.282,1.376" transform="translate(-2041.932 -0.507)"/>
    <path id="Path_48-2" data-name="Path 48" class="cls-1" d="M3296.661,802.3l10.11,32.424v1.688" transform="translate(-2017.507 -0.484)"/>
    <path id="Path_49-2" data-name="Path 49" class="cls-1" d="M3311.43,831.327l-9.7-16.757L3302.8,802.7l-6.039,11.873,13.459,19s1.157,1.49,2.282,1.376" transform="translate(-2023.339 -0.507)"/>
    <g id="Rectangle_19" data-name="Rectangle 19" class="cls-3" transform="translate(1252.872 835.31)">
      <rect id="fill" class="cls-4" width="2.869" height="0.956" rx="0.478"/>
      <path class="cls-6" d="M0,0.45635986328125h2.869110107421875M2.369110107421875,0v0.95635986328125M2.869110107421875,0.5h-2.869110107421875M0.5,0.95635986328125v-0.95635986328125"/>
    </g>
    <g id="Rectangle_20" data-name="Rectangle 20" class="cls-3" transform="translate(1288.258 835.31)">
      <rect id="fill-2" class="cls-4" width="2.869" height="0.956" rx="0.478"/>
      <path class="cls-7" d="M0,0.45635986328125h2.869110107421875M2.369110107421875,0v0.95635986328125M2.869110107421875,0.5h-2.869110107421875M0.5,0.95635986328125v-0.95635986328125"/>
    </g>
  </g>
</svg>
