<svg xmlns="http://www.w3.org/2000/svg" viewBox="2996 736 128 128">
  <defs>
    <style>
      .cls-1, .cls-2, .cls-4 {
        fill: none;
      }

      .cls-1, .cls-2 {
        stroke: #007AFF;
      }

      .cls-1 {
        stroke-width: 2px;
      }

      .cls-3 {
        stroke: none;
      }
    </style>
  </defs>
  <g id="Group_12" data-name="Group 12" transform="translate(2019)">
    <g id="Ellipse_49" data-name="Ellipse 49" class="cls-1" transform="translate(977 736)">
      <circle class="cls-3" cx="64" cy="64" r="64"/>
      <circle class="cls-4" cx="64" cy="64" r="63"/>
    </g>
    <path id="Path_35" data-name="Path 35" class="cls-2" d="M3076.114,762.083c-21.636,0-31.174,17.984-30.9,31.269s10.951,30.1,30.908,30.1,31.269-16.053,31.269-31.643" transform="translate(-2035.067 7.83)"/>
    <path id="Path_36" data-name="Path 36" class="cls-2" d="M24.9,0C7.468,0-.215,14.486,0,25.188s8.821,24.25,24.9,24.25S49.938,35.551,50.09,23.949" transform="translate(1006.043 800.83) rotate(-45)"/>
    <path id="Path_37" data-name="Path 37" class="cls-2" d="M19.157,0C5.746,0-.166,11.147,0,19.382s6.788,18.66,19.158,18.66S38.426,27.356,38.543,18.428" transform="translate(1022.211 819.871) rotate(-90)"/>
  </g>
</svg>
