<svg xmlns="http://www.w3.org/2000/svg" viewBox="2761 736 128 128">
  <defs>
    <style>
      .cls-1, .cls-2, .cls-4 {
        fill: none;
      }

      .cls-1, .cls-2 {
        stroke: #007AFF;
      }

      .cls-1 {
        stroke-width: 2px;
      }

      .cls-3 {
        stroke: none;
      }
    </style>
  </defs>
  <g id="Group_11" data-name="Group 11" transform="translate(2019)">
    <g id="Ellipse_48" data-name="Ellipse 48" class="cls-1" transform="translate(742 736)">
      <circle class="cls-3" cx="64" cy="64" r="64"/>
      <circle class="cls-4" cx="64" cy="64" r="63"/>
    </g>
    <path id="Path_32" data-name="Path 32" class="cls-2" d="M25.293,33.511,1.308,6.872C-.394,4.982-.436,2.3,1.187.845s4.245-.926,5.933.794S20.866,16.905,20.866,16.905s-4.379-4.263-.757-7.525,7.871,2.028,7.871,2.028a3.732,3.732,0,0,1,.444-5.521c3.053-2.749,7.458,2.1,7.458,2.1s-1.732-3.041.2-4.78,4.076-.594,5.928,1.32,2.03,2.254,8.276,9.191,6.976,18,.068,24.327-12.818,5.9-17.861,5.9H13.706c-3.776,0-6.1-2.29-6.1-5.423s2.984-5.112,6.1-5.112S25.293,33.511,25.293,33.511Z" transform="translate(798.026 771.696) rotate(42)"/>
    <path id="Path_60" data-name="Path 60" class="cls-2" d="M8.506,0A8.349,8.349,0,0,0,0,8.605,8.507,8.507,0,0,0,8.508,16.89a8.734,8.734,0,0,0,8.605-8.708" transform="translate(810.252 775.354) rotate(135)"/>
  </g>
</svg>
