<svg xmlns="http://www.w3.org/2000/svg" viewBox="2794.799 792 130.033 130.033">
  <defs>
    <style>
      .cls-1, .cls-2, .cls-4 {
        fill: none;
      }

      .cls-1, .cls-2 {
        stroke: #000;
      }

      .cls-1 {
        stroke-width: 2px;
      }

      .cls-3 {
        stroke: none;
      }
    </style>
  </defs>
  <g id="Group_18" data-name="Group 18" transform="translate(2043)">
    <g id="Ellipse_56" data-name="Ellipse 56" class="cls-1" transform="translate(751.799 792)">
      <circle class="cls-3" cx="65.017" cy="65.017" r="65.017"/>
      <circle class="cls-4" cx="65.017" cy="65.017" r="64.017"/>
    </g>
    <g id="Group_14" data-name="Group 14" transform="translate(791.531 824.508)">
      <path id="Path_58" data-name="Path 58" class="cls-2" d="M2845.831,834.54h-43.874a7.055,7.055,0,0,0-7.169,7.189V892.9a7.038,7.038,0,0,0,7.169,7.168h43.874V847.95c-3.972,0-7.479-2.565-7.468-6.866S2842.329,834.54,2845.831,834.54Z" transform="translate(-2794.633 -834.54)"/>
      <path id="Path_59" data-name="Path 59" class="cls-2" d="M2840.414,848.915h-43.721a6.931,6.931,0,0,1-6.909-6.93" transform="translate(-2789.633 -835.023)"/>
      <path id="Path_60" data-name="Path 60" class="cls-2" d="M2819.6,849.4v19.581l7.505-5.693,7.724,5.693V849.4Z" transform="translate(-2796.243 -835.504)"/>
      <line id="Line_3" data-name="Line 3" class="cls-2" x2="12.156" transform="translate(9.237 49.524)"/>
      <line id="Line_4" data-name="Line 4" class="cls-2" x2="20.573" transform="translate(9.237 56.07)"/>
      <line id="Line_7" data-name="Line 7" class="cls-2" x2="40.646" transform="translate(3.612 4.297)"/>
      <line id="Line_8" data-name="Line 8" class="cls-2" x2="40.646" transform="translate(0 9.113)"/>
    </g>
  </g>
</svg>
